<mxfile host="app.diagrams.net" modified="2021-05-25T23:53:37.079Z" agent="5.0 (Windows NT 6.1; WOW64) AppleWebKit/537.36 (KHTML, like Gecko) Chrome/90.0.4430.212 Safari/537.36" etag="zVlw6f_7DvLTBQBqoJgM" version="14.7.0" type="github">
  <diagram id="1kZs1eBW7XxNJJ-lZONK" name="Page-1">
    <mxGraphModel dx="868" dy="393" grid="1" gridSize="10" guides="1" tooltips="1" connect="1" arrows="1" fold="1" page="1" pageScale="1" pageWidth="827" pageHeight="1169" math="0" shadow="0">
      <root>
        <mxCell id="0" />
        <mxCell id="1" parent="0" />
        <mxCell id="R8kEVKJ1Xi43B2PSGs_2-20" style="edgeStyle=orthogonalEdgeStyle;rounded=0;orthogonalLoop=1;jettySize=auto;html=1;exitX=0.5;exitY=1;exitDx=0;exitDy=0;entryX=0.5;entryY=0;entryDx=0;entryDy=0;" edge="1" parent="1" source="R8kEVKJ1Xi43B2PSGs_2-17" target="R8kEVKJ1Xi43B2PSGs_2-18">
          <mxGeometry relative="1" as="geometry" />
        </mxCell>
        <mxCell id="R8kEVKJ1Xi43B2PSGs_2-17" value="start" style="ellipse;whiteSpace=wrap;html=1;" vertex="1" parent="1">
          <mxGeometry x="340" y="40" width="120" height="80" as="geometry" />
        </mxCell>
        <mxCell id="R8kEVKJ1Xi43B2PSGs_2-23" style="edgeStyle=orthogonalEdgeStyle;rounded=0;orthogonalLoop=1;jettySize=auto;html=1;exitX=0.5;exitY=1;exitDx=0;exitDy=0;entryX=0.5;entryY=0;entryDx=0;entryDy=0;" edge="1" parent="1" source="R8kEVKJ1Xi43B2PSGs_2-18" target="R8kEVKJ1Xi43B2PSGs_2-22">
          <mxGeometry relative="1" as="geometry" />
        </mxCell>
        <mxCell id="R8kEVKJ1Xi43B2PSGs_2-18" value="elements=[32,24,68,96,102,112]&lt;br&gt;i = 0" style="shape=parallelogram;perimeter=parallelogramPerimeter;whiteSpace=wrap;html=1;fixedSize=1;" vertex="1" parent="1">
          <mxGeometry x="330" y="230" width="140" height="70" as="geometry" />
        </mxCell>
        <mxCell id="R8kEVKJ1Xi43B2PSGs_2-29" style="edgeStyle=orthogonalEdgeStyle;rounded=0;orthogonalLoop=1;jettySize=auto;html=1;exitX=1;exitY=0.5;exitDx=0;exitDy=0;entryX=0;entryY=0.5;entryDx=0;entryDy=0;" edge="1" parent="1" source="R8kEVKJ1Xi43B2PSGs_2-22" target="R8kEVKJ1Xi43B2PSGs_2-24">
          <mxGeometry relative="1" as="geometry" />
        </mxCell>
        <mxCell id="R8kEVKJ1Xi43B2PSGs_2-37" style="edgeStyle=orthogonalEdgeStyle;rounded=0;orthogonalLoop=1;jettySize=auto;html=1;exitX=0.5;exitY=1;exitDx=0;exitDy=0;" edge="1" parent="1" source="R8kEVKJ1Xi43B2PSGs_2-22">
          <mxGeometry relative="1" as="geometry">
            <mxPoint x="400" y="530" as="targetPoint" />
          </mxGeometry>
        </mxCell>
        <mxCell id="R8kEVKJ1Xi43B2PSGs_2-22" value="i &amp;lt; element.length" style="rhombus;whiteSpace=wrap;html=1;" vertex="1" parent="1">
          <mxGeometry x="340" y="380" width="120" height="100" as="geometry" />
        </mxCell>
        <mxCell id="R8kEVKJ1Xi43B2PSGs_2-32" style="edgeStyle=orthogonalEdgeStyle;rounded=0;orthogonalLoop=1;jettySize=auto;html=1;exitX=0.5;exitY=0;exitDx=0;exitDy=0;" edge="1" parent="1" source="R8kEVKJ1Xi43B2PSGs_2-24">
          <mxGeometry relative="1" as="geometry">
            <mxPoint x="635" y="340" as="targetPoint" />
          </mxGeometry>
        </mxCell>
        <mxCell id="R8kEVKJ1Xi43B2PSGs_2-35" style="edgeStyle=orthogonalEdgeStyle;rounded=0;orthogonalLoop=1;jettySize=auto;html=1;" edge="1" parent="1" source="R8kEVKJ1Xi43B2PSGs_2-24">
          <mxGeometry relative="1" as="geometry">
            <mxPoint x="635" y="540" as="targetPoint" />
          </mxGeometry>
        </mxCell>
        <mxCell id="R8kEVKJ1Xi43B2PSGs_2-24" value="elements [i] % 2 =0&amp;nbsp;" style="rhombus;whiteSpace=wrap;html=1;" vertex="1" parent="1">
          <mxGeometry x="570" y="380" width="130" height="100" as="geometry" />
        </mxCell>
        <mxCell id="R8kEVKJ1Xi43B2PSGs_2-28" style="edgeStyle=orthogonalEdgeStyle;rounded=0;orthogonalLoop=1;jettySize=auto;html=1;" edge="1" parent="1" source="R8kEVKJ1Xi43B2PSGs_2-25">
          <mxGeometry relative="1" as="geometry">
            <mxPoint x="400" y="310" as="targetPoint" />
          </mxGeometry>
        </mxCell>
        <mxCell id="R8kEVKJ1Xi43B2PSGs_2-25" value="i++" style="rounded=0;whiteSpace=wrap;html=1;" vertex="1" parent="1">
          <mxGeometry x="575" y="280" width="120" height="60" as="geometry" />
        </mxCell>
        <mxCell id="R8kEVKJ1Xi43B2PSGs_2-30" value="true" style="text;html=1;align=center;verticalAlign=middle;resizable=0;points=[];autosize=1;strokeColor=none;" vertex="1" parent="1">
          <mxGeometry x="480" y="410" width="40" height="20" as="geometry" />
        </mxCell>
        <mxCell id="R8kEVKJ1Xi43B2PSGs_2-33" value="true" style="text;html=1;align=center;verticalAlign=middle;resizable=0;points=[];autosize=1;strokeColor=none;" vertex="1" parent="1">
          <mxGeometry x="590" y="360" width="40" height="20" as="geometry" />
        </mxCell>
        <mxCell id="R8kEVKJ1Xi43B2PSGs_2-42" style="edgeStyle=orthogonalEdgeStyle;rounded=0;orthogonalLoop=1;jettySize=auto;html=1;entryX=1;entryY=0.625;entryDx=0;entryDy=0;entryPerimeter=0;" edge="1" parent="1" source="R8kEVKJ1Xi43B2PSGs_2-34" target="R8kEVKJ1Xi43B2PSGs_2-40">
          <mxGeometry relative="1" as="geometry">
            <Array as="points">
              <mxPoint x="635" y="670" />
            </Array>
          </mxGeometry>
        </mxCell>
        <mxCell id="R8kEVKJ1Xi43B2PSGs_2-34" value="print false" style="shape=parallelogram;perimeter=parallelogramPerimeter;whiteSpace=wrap;html=1;fixedSize=1;" vertex="1" parent="1">
          <mxGeometry x="575" y="540" width="120" height="60" as="geometry" />
        </mxCell>
        <mxCell id="R8kEVKJ1Xi43B2PSGs_2-45" style="edgeStyle=orthogonalEdgeStyle;rounded=0;orthogonalLoop=1;jettySize=auto;html=1;entryX=0;entryY=0.625;entryDx=0;entryDy=0;entryPerimeter=0;" edge="1" parent="1" source="R8kEVKJ1Xi43B2PSGs_2-36" target="R8kEVKJ1Xi43B2PSGs_2-40">
          <mxGeometry relative="1" as="geometry" />
        </mxCell>
        <mxCell id="R8kEVKJ1Xi43B2PSGs_2-36" value="print true" style="shape=parallelogram;perimeter=parallelogramPerimeter;whiteSpace=wrap;html=1;fixedSize=1;" vertex="1" parent="1">
          <mxGeometry x="340" y="530" width="120" height="60" as="geometry" />
        </mxCell>
        <mxCell id="R8kEVKJ1Xi43B2PSGs_2-38" value="false" style="text;html=1;align=center;verticalAlign=middle;resizable=0;points=[];autosize=1;strokeColor=none;" vertex="1" parent="1">
          <mxGeometry x="360" y="480" width="40" height="20" as="geometry" />
        </mxCell>
        <mxCell id="R8kEVKJ1Xi43B2PSGs_2-39" value="false" style="text;html=1;align=center;verticalAlign=middle;resizable=0;points=[];autosize=1;strokeColor=none;" vertex="1" parent="1">
          <mxGeometry x="600" y="490" width="40" height="20" as="geometry" />
        </mxCell>
        <mxCell id="R8kEVKJ1Xi43B2PSGs_2-40" value="end" style="ellipse;whiteSpace=wrap;html=1;" vertex="1" parent="1">
          <mxGeometry x="440" y="620" width="120" height="80" as="geometry" />
        </mxCell>
      </root>
    </mxGraphModel>
  </diagram>
</mxfile>
